# xmcd
#
# Track frame offsets:
#	150
#	17625
#	38162
#	55255
#
# Disc length: 962 seconds
#
# Revision: 0
# Processed by: cddbd v1.5.1PL0 Copyright (c) Steve Scherf et al.
# Submitted via: audiograbber 1.83.01
#
DISCID=2903c004
DTITLE=S Connection Feat Anabelle - Turn It Up
DYEAR=1900
DGENRE=
TTITLE0=Turn It Up ( Orginal)
TTITLE1=Turn It Up (Organic Mix)
TTITLE2=Turn It Up (70´s Soft Mix)
TTITLE3=Turn It Up (Sing A Long)
EXTD=
EXTT0=
EXTT1=
EXTT2=
EXTT3=
PLAYORDER=
